PathFileType	4	(X/Y/Z)	C:/Users/beibeiliu/ov580/test_trc\sequence.11_training_dense_right.trc
DataRate	CameraRate	NumFrames	NumMarkers	Units	OrigDataRate	OrigDataStartFrame	OrigNumFrames
120	120	12	19	mm	120	100	398
Frame#	Time	ThumbCMC			ThumbMCP			ThumbIP			ThumbTip			IndexMCP			IndexPIP			IndexTip			MiddleMCP			MiddlePIP			MiddleTip			RingMCP			RingPIP			RingTip			PinkyMCP			PinkyPIP			PinkyTip			BackHand1			BackHand2			BackHand3	
		X0	Y0	Z0	X1	Y1	Z1	X2	Y2	Z2	X3	Y3	Z3	X4	Y4	Z4	X5	Y5	Z5	X6	Y6	Z6	X7	Y7	Z7	X8	Y8	Z8	X9	Y9	Z9	X10	Y10	Z10	X11	Y11	Z11	X12	Y12	Z12	X13	Y13	Z13	X14	Y14	Z14	X15	Y15	Z15	X16	Y16	Z16	X17	Y17	Z17	X18	Y18	Z18	
99	0.825	138.897	-10.0706	22.6863	144.187	-26.9879	-4.23321	159.11	-28.2839	-27.5086	184.258	-25.566	-36.4878	139.853	18.4301	-33.71	136.008	22.1357	-53.067	131.97	30.9329	-76.0028	164.234	28.5087	-39.8844	168.439	33.4958	-58.5138	169.175	44.5706	-79.3227	187.001	19.4807	-35.5088	193.675	19.2561	-56.5892	196.737	19.7691	-75.2823	205.96	2.2022	-24.8154	199.84	-22.5576	-27.6333	181.71	-29.3525	-9.77646	181.192	23.6787	8.56398	181.18	24.4894	37.1653	153.01	20.3568	20.4041	
100	0.833333	139.868	-11.3335	22.4687	142.087	-28.2946	-7.49945	157.235	-29.6738	-27.3535	181.892	-20.4591	-34.3438	141.26	20.7023	-33.91	134.088	26.7705	-54.7402	131.977	33.6923	-71.2887	164.952	29.251	-37.7602	168.012	38.1239	-58.4002	168.613	48.9813	-76.164	185.413	22.7506	-32.4925	188.882	24.1696	-55.6274	193.272	25.6747	-78.2901	201.919	6.86827	-22.6307	197.52	-15.5279	-32.7708	184.993	-28.0417	-12.2026	176.095	23.1609	10.929	178.786	23.4449	36.5514	151.303	21.5131	20.8418	
101	0.841667	136.498	-14.0608	18.0247	144.236	-26.0795	-9.4689	157.566	-26.4427	-33.1642	178.638	-22.8537	-40.4398	134.333	21.0117	-33.9511	130.725	27.272	-51.4466	128.035	39.1792	-71.0396	161.661	32.0994	-37.55	162.222	39.2611	-54.7491	164.152	55.9	-75.5406	179.258	24.7572	-33.2327	185.641	27.1866	-54.3196	188.439	30.4511	-75.0452	197.373	9.19196	-21.5336	196.106	-13.7311	-33.0849	183.219	-27.879	-15.979	175.455	21.9112	14.6183	172.876	18.7725	38.6722	150.259	19.0946	21.1499	
102	0.85	137.879	-15.9387	19.2213	140.849	-29.681	-10.6947	155.359	-27.4765	-34.6806	175.653	-22.4015	-39.605	134.93	20.3148	-30.7435	130.798	28.8543	-49.1134	125.604	40.8141	-67.0909	158.681	31.9608	-33.4705	160.4	44.0319	-53.5857	163.144	61.4944	-72.2572	179.196	25.104	-29.6526	182.1	29.8053	-51.7168	185.273	34.7458	-71.6033	196.266	10.0356	-24.7393	196.274	-11.1859	-34.464	185.151	-27.0638	-18.5903	170.984	22.8619	10.58	171.393	18.1205	40.6753	148.126	16.4649	22.4218	
103	0.858333	133.685	-21.3659	19.7532	139.778	-31.6607	-10.5438	153.429	-28.3208	-31.4866	177.118	-20.416	-42.9289	135.147	20.3677	-32.9818	126.435	28.4221	-51.2576	119.541	40.1177	-66.8739	159.28	30.2422	-32.7938	156.025	42.2898	-53.1904	156.283	58.1183	-68.8165	176.218	25.2684	-31.5845	181.567	29.5342	-49.7573	185.174	35.1735	-69.5777	197.223	9.45271	-24.7064	195.361	-10.1314	-36.6347	183.815	-28.935	-21.6084	171.614	20.7483	12.6356	167.769	15.1175	39.9138	141.902	12.0018	22.7493	
104	0.866667	137.01	-23.8249	20.5334	137.47	-36.5988	-13.7695	153.33	-31.2305	-32.551	173.461	-26.1351	-41.3346	130.485	13.4484	-31.0707	124.449	23.7219	-51.137	122.983	36.0949	-66.6405	153.219	27.2712	-35.2747	157.522	38.4836	-51.5629	158.89	54.9874	-67.1848	177.288	21.8108	-30.7469	178.662	27.329	-52.3057	187.023	32.7274	-70.7862	195.532	6.84125	-22.3389	196.274	-15.3468	-35.7753	179.941	-32.6571	-18.4187	169.614	16.0522	15.6738	168.764	9.9673	40.6424	146.163	7.37649	23.0295	
105	0.875	135.344	-27.6474	18.1645	138.815	-41.9645	-13.7232	154.129	-38.4295	-36.1062	176.689	-30.2088	-42.8808	131.224	9.09186	-34.6403	126.092	16.007	-51.9361	121.953	27.4456	-66.6755	155.887	21.1911	-36.1019	157.99	30.9178	-51.4831	158.551	48.7556	-69.7394	175.557	16.5079	-34.6927	178.779	21.3136	-54.4955	183.6	26.202	-69.7685	195.611	0.573712	-24.1064	193.135	-23.4033	-35.5809	181.582	-36.7391	-19.0195	169.777	11.337	10.9786	165.935	6.64122	37.8458	142.85	2.64885	18.5747	
106	0.883333	132.904	-33.8381	17.2573	138.982	-47.7582	-13.5526	155.869	-43.7834	-35.466	176.573	-39.0434	-41.2321	136.427	3.85253	-37.1219	132.079	10.0873	-53.0177	125.134	23.1392	-70.4782	160.871	16.0436	-38.7694	161.559	27.4012	-56.1811	162.363	44.8269	-74.305	177.731	10.537	-35.1911	182.365	13.7385	-53.5129	185.459	17.8528	-71.8348	199.318	-5.81813	-22.464	198.224	-31.7488	-32.4343	186.53	-43.2959	-16.776	174.362	9.60627	9.9988	171.005	4.39694	37.5781	144.739	0.709185	16.3367	
107	0.891667	135.338	-37.947	16.6962	144.453	-49.6492	-12.7977	159.61	-48.1639	-34.9104	181.418	-44.4364	-43.1852	136.046	-1.85228	-37.6747	128.976	4.75335	-57.2596	125.462	17.4827	-75.7442	160.425	11.5133	-41.7487	161.891	20.1143	-58.56	167.549	35.3347	-72.9839	180.367	4.15789	-35.7841	189.818	9.68931	-56.9595	190.457	11.2552	-74.6005	202.032	-12.9575	-25.9345	200.687	-34.6766	-34.3058	182.78	-47.164	-16.2941	175.805	3.8345	8.61332	168.768	1.10774	32.52	145.908	-3.93015	16.6398	
108	0.9	139.089	-39.4765	17.0403	144.671	-54.5726	-15.6681	159.286	-56.7203	-36.2375	183.383	-48.1881	-41.496	138.889	-6.1532	-37.4846	132.6	2.056	-60.0071	126.697	11.8874	-77.2182	160.988	3.84581	-38.1172	167.338	16.4458	-57.3667	166.897	30.2708	-75.9931	183.415	0.938134	-38.5578	191.774	4.95359	-56.6939	196.426	8.57553	-77.0283	203.005	-18.6017	-28.1208	200.275	-38.8861	-33.6888	185.023	-52.1667	-13.8486	177.431	-0.590875	9.00355	167.89	-2.2036	32.2159	146.544	-5.44358	15.7965	
109	0.908333	137.301	-42.0331	16.0684	144.457	-56.7136	-12.1609	161.753	-57.0481	-35.9375	184.933	-50.1393	-40.4416	138.412	-10.1776	-36.3549	134.358	-3.75539	-56.8119	128.801	9.97581	-76.9377	165.932	4.25389	-42.1211	164.236	11.7987	-59.9916	170.211	27.7001	-74.9129	187.202	-2.20636	-36.7578	192.593	0.717518	-54.3895	196.519	3.5961	-75.3282	201.348	-19.5606	-27.7523	200.584	-44.4503	-32.163	184.262	-51.7839	-14.3284	176.576	-3.20635	8.13192	172.425	-3.09339	32.9369	149.495	-10.1102	16.8277	
110	0.916667	137.194	-41.8975	13.0148	145.771	-58.5092	-14.0496	159.2	-60.7311	-35.1404	186.497	-51.8899	-44.0238	142.517	-9.37586	-36.8465	135.702	-2.61587	-59.7866	127.679	6.69791	-75.2316	161.336	1.01131	-39.5598	166.754	13.3646	-62.2771	168.797	28.3909	-76.8238	185.006	-4.09336	-34.7909	188.13	-0.22492	-59.8726	192.856	0.862303	-74.8421	202.59	-20.4345	-27.5064	198.391	-43.4132	-33.585	185.847	-55.2501	-12.5009	177.754	-3.8392	9.23328	172.122	-6.94601	35.083	148.189	-8.37802	14.681	
